<svg xmlns="http://www.w3.org/2000/svg" viewBox="0 0 257.088 105.651" width="257.088" height="105.651">
  <title>Praxis wordmark</title>
  
  <path d="M483 892 162.5 -266Q153 -302 162.5 -323.0Q172 -344 199 -349.5L253.5 -359.5Q279.5 -365 291.5 -377.75Q303.5 -390.5 303.5 -409.5Q303.5 -438 283.75 -455.25Q264 -472.5 231.5 -473L-120 -479Q-155 -480 -172.0 -465.0Q-189 -450 -189 -424.5Q-189 -404 -175.5 -389.0Q-162 -374 -127.5 -358.5Q-99.5 -348.5 -83.25 -338.0Q-67 -327.5 -57.5 -312.75Q-48 -298 -42 -277L288 904.5Q295 930 304.75 951.25Q314.5 972.5 327.0 988.75Q339.5 1005 354.75 1016.5Q370 1028 387.25 1033.75Q404.5 1039.5 424.5 1039.5Q474.5 1039.5 488.0 1001.75Q501.5 964 483 892ZM143.5 614.5Q121.5 593 100.0 589.5Q78.5 586 63.5 599.5Q46 616.5 53.25 647.5Q60.5 678.5 87.5 707Q137.5 768 206.5 809.5Q275.5 851 359.25 872.75Q443 894.5 536.5 894.5Q649.5 894.5 727.5 845.75Q805.5 797 842.25 704.25Q879 611.5 868 478.5Q858.5 322.5 798.25 211.75Q738 101 646.0 42.0Q554 -17 449 -17Q333 -17 259.25 34.5Q185.5 86 165.5 175L251 212.5Q272 163 309.0 134.75Q346 106.5 408 106.5Q469 106.5 522.25 156.5Q575.5 206.5 611.25 293.25Q647 380 655.5 490.5Q665.5 588.5 644.75 649.25Q624 710 581.0 738.5Q538 767 480 767Q392 767 306.25 731.25Q220.5 695.5 143.5 614.5Z" fill="#2A2520" transform="translate(18.6720 73.0560) scale(0.04800000 -0.04800000)"/>
  <path d="M99 657.5Q75 660 70.5 685.25Q66 710.5 86 742Q114 785.5 153.5 819.0Q193 852.5 239.5 871.5Q286 890.5 333 890.5Q383 890.5 410.0 863.0Q437 835.5 437 786.5Q437 755.5 427.75 714.25Q418.5 673 401.0 619.0Q383.5 565 359.75 494.25Q336 423.5 306.5 332.5L275.5 335Q317 480 366.25 585.25Q415.5 690.5 469.5 758.0Q523.5 825.5 578.75 858.0Q634 890.5 686.5 890.5Q748.5 890.5 783.5 848.25Q818.5 806 818.5 731.5Q818.5 676 797.75 634.25Q777 592.5 744.25 569.0Q711.5 545.5 675 545.5Q634.5 545.5 618.0 562.5Q601.5 579.5 601.5 605Q601.5 628 608.0 647.75Q614.5 667.5 614.5 694Q614.5 710.5 605.5 718.0Q596.5 725.5 579.5 725.5Q547 725.5 506.5 686.25Q466 647 424.75 569.75Q383.5 492.5 347 379.5Q322 302.5 314.75 262.0Q307.5 221.5 307.5 190Q307.5 163 314.5 146.5Q321.5 130 328.25 116.75Q335 103.5 335 86Q335 54.5 311.75 31.25Q288.5 8 247.0 -4.75Q205.5 -17.5 152 -17.5Q97 -17.5 70.75 5.75Q44.5 29 46.75 76.75Q49 124.5 78 197L222 589Q249 659 246.75 688.5Q244.5 718 215.5 718Q200 718 182.0 707.25Q164 696.5 134.5 668.5Q124.5 661 115.75 658.25Q107 655.5 99 657.5Z" fill="#2A2520" transform="translate(61.6320 73.0560) scale(0.04800000 -0.04800000)"/>
  <path d="M749 285.5Q731.5 218.5 738.5 190.25Q745.5 162 768 162Q785 162 801.5 172.5Q818 183 841 208.5Q851 219 859.5 221.75Q868 224.5 875 222.5Q894 220 898.25 199.25Q902.5 178.5 887.5 139Q855 64.5 795.25 23.5Q735.5 -17.5 667 -17.5Q605.5 -17.5 575.25 16.0Q545 49.5 545 109Q545 131.5 547.75 157.75Q550.5 184 557.5 219.75Q564.5 255.5 577.0 305.0Q589.5 354.5 609.5 422.5L629 367Q566.5 236 500.5 150.75Q434.5 65.5 365.0 24.0Q295.5 -17.5 221.5 -17.5Q125.5 -17.5 74.75 56.75Q24 131 40 275.5Q49.5 360.5 81.25 447.75Q113 535 166.25 614.25Q219.5 693.5 293.75 755.75Q368 818 463.0 854.25Q558 890.5 672.5 890.5Q758.5 890.5 812.5 876.75Q866.5 863 891.0 837.25Q915.5 811.5 912.5 775.5Q910 749 897.0 732.5Q884 716 869.0 697.75Q854 679.5 845 647ZM253 299Q239.5 218 260.0 174.25Q280.5 130.5 318.5 130.5Q362 130.5 408.5 171.5Q455 212.5 498.75 279.5Q542.5 346.5 578.25 424.75Q614 503 636.25 579.25Q658.5 655.5 662 713.5Q663.5 740.5 650.0 754.25Q636.5 768 597 768Q554.5 768 510.5 741.75Q466.5 715.5 424.5 669.75Q382.5 624 347.5 564.25Q312.5 504.5 287.75 436.5Q263 368.5 253 299Z" fill="#2A2520" transform="translate(98.4000 73.0560) scale(0.04800000 -0.04800000)"/>
  <path d="M386 478 433.5 391Q412.5 282 381.5 204.25Q350.5 126.5 311.75 77.75Q273 29 228.0 6.0Q183 -17 133 -17Q59 -17 23.0 29.75Q-13 76.5 -13 148.5Q-12 231 22.0 277.75Q56 324.5 107.5 324.5Q146.5 324.5 166.75 300.5Q187 276.5 187 243Q186.5 224.5 183.0 207.75Q179.5 191 179.5 172.5Q179.5 153 188.0 141.5Q196.5 130 216.5 130Q240 130 267.5 160.5Q295 191 325.25 266.75Q355.5 342.5 386 478ZM558.5 672.5 591.5 233Q595.5 180.5 611.25 154.75Q627 129 659.5 129Q685.5 129 707.75 144.75Q730 160.5 757 194.5Q782.5 219 802.25 225.0Q822 231 836 222Q852.5 211.5 852.0 188.75Q851.5 166 838 137Q820 96 784.25 60.75Q748.5 25.5 699.5 4.0Q650.5 -17.5 591 -17.5Q526.5 -17.5 486.5 9.75Q446.5 37 426.5 86.0Q406.5 135 400.5 200.5L367.5 640Q363.5 692.5 347.75 718.25Q332 744 299.5 744Q274.5 744 251.75 728.75Q229 713.5 202 678.5Q177 654 157.25 648.25Q137.5 642.5 123 651Q106.5 661.5 107.25 684.5Q108 707.5 121 736Q139.5 777.5 175.0 812.5Q210.5 847.5 259.5 869.0Q308.5 890.5 368 890.5Q433 890.5 472.75 863.25Q512.5 836 533.0 787.25Q553.5 738.5 558.5 672.5ZM576 417 528.5 504Q547.5 607.5 576.75 681.0Q606 754.5 644.25 800.75Q682.5 847 727.0 868.75Q771.5 890.5 820.5 890.5Q894.5 890.5 930.75 843.75Q967 797 966.5 725Q965.5 643 931.5 596.0Q897.5 549 846 549Q807.5 549 787.0 573.0Q766.5 597 766.5 630.5Q767 649 770.5 665.75Q774 682.5 774 701Q774 720.5 765.75 732.0Q757.5 743.5 737 743.5Q720.5 743.5 701.0 728.0Q681.5 712.5 660.5 675.75Q639.5 639 618.0 575.75Q596.5 512.5 576 417Z" fill="#2A2520" transform="translate(143.1840 73.0560) scale(0.04800000 -0.04800000)"/>
  <path d="M308.5 279Q288.5 224 290.0 194.25Q291.5 164.5 320 164.5Q336 164.5 354.5 173.75Q373 183 395.5 208Q405 217.5 413.0 220.5Q421 223.5 428.5 221.5Q447 219.5 453.0 194.5Q459 169.5 437.5 129Q399 60.5 336.75 21.5Q274.5 -17.5 200.5 -17.5Q136.5 -17.5 103.75 14.25Q71 46 68.25 101.5Q65.5 157 92.5 228L224.5 594Q245 648.5 242.0 678.5Q239 708.5 210.5 708.5Q192.5 708.5 175.5 698.75Q158.5 689 134 663Q126 655.5 118.0 652.25Q110 649 101.5 651.5Q83 654 77.25 678.5Q71.5 703 92 743Q129.5 810 192.25 850.25Q255 890.5 330 890.5Q394 890.5 426.25 858.5Q458.5 826.5 461.25 771.75Q464 717 438.5 647ZM407.5 1037Q354 1037 324.0 1071.25Q294 1105.5 293.5 1159Q293.5 1199.5 311.75 1236.75Q330 1274 364.25 1298.0Q398.5 1322 447 1322Q503.5 1322 534.5 1287.75Q565.5 1253.5 566 1200Q566 1160 547.25 1122.5Q528.5 1085 493.0 1061.0Q457.5 1037 407.5 1037Z" fill="#2A2520" transform="translate(187.7760 73.0560) scale(0.04800000 -0.04800000)"/>
  <path d="M317.5 88Q372.5 88 400.75 118.25Q429 148.5 429 189Q429 213 418.5 236.25Q408 259.5 378.25 289.5Q348.5 319.5 291.5 361Q222 411.5 182.25 453.75Q142.5 496 126.75 540.0Q111 584 113.5 639Q118 713 161.75 770.5Q205.5 828 283.5 861.25Q361.5 894.5 468.5 894.5Q559 894.5 620.75 871.0Q682.5 847.5 714.25 807.25Q746 767 746 716Q746 669 729.0 646.5Q712 624 681.5 624Q655 624 634.25 640.0Q613.5 656 587.5 698Q560 744 525.75 768.0Q491.5 792 443.5 792Q386.5 792 353.0 759.25Q319.5 726.5 319.5 679.5Q319.5 655.5 330.5 628.75Q341.5 602 370.75 570.25Q400 538.5 454 497Q535.5 439.5 575.0 390.75Q614.5 342 624.75 297.5Q635 253 629 206.5Q621.5 141 579.25 90.25Q537 39.5 465.0 11.0Q393 -17.5 296 -17.5Q199.5 -17.5 132.5 10.5Q65.5 38.5 31.0 84.25Q-3.5 130 -3.5 183Q-3.5 224.5 15.75 248.0Q35 271.5 68 271.5Q95 271.5 117.0 252.25Q139 233 159.5 195.5Q188 136 227.5 112.0Q267 88 317.5 88Z" fill="#2A2520" transform="translate(211.6800 73.0560) scale(0.04800000 -0.04800000)"/>
</svg>
